<svg xmlns="http://www.w3.org/2000/svg" viewBox="0 0 500 500">
  <defs>
    <path id="mask" d="M47.69,47.69C16.56,78.82,1,164.41,1,250S16.56,421.18,47.69,452.31,164.41,499,250,499s171.18-15.56,202.31-46.69S499,335.59,499,250,483.44,78.82,452.31,47.69,335.59,1,250,1,78.82,16.56,47.69,47.69Z"/>
    <clipPath id="clip">
      <use href="#mask" transform="scale(.81)" transform-origin="center"/>
    </clipPath>
  </defs>
  <use fill="#8D2" href="#mask"/>
  <path fill="none" stroke="#351" stroke-width="50" clip-path="url(#clip)" d="M350,275v75a75,75,0,1,1-128-53l28-28V231.07l42.68-42.68A195.71,195.71,0,0,0,350,50h0a195.71,195.71,0,0,1-57.32,138.39L250,231.07v37.86l-42.68,42.68A195.71,195.71,0,0,0,150,450h0a195.71,195.71,0,0,1,57.32-138.39L250,268.93V231.07l27.37-27.37c29.24-29.24,30.09-76.87,1.06-106.33A75,75,0,0,0,150,150v75"/>
</svg>
